<svg width="135" height="72" viewBox="0 0 135 72" fill="none" xmlns="http://www.w3.org/2000/svg">
<g clip-path="url(#clip0_4474_946)">
<mask id="mask0_4474_946" style="mask-type:luminance" maskUnits="userSpaceOnUse" x="0" y="0" width="135" height="72">
<path d="M134.873 0H0V71.113H134.873V0Z" fill="white"></path>
</mask>
<g mask="url(#mask0_4474_946)">
<path d="M69.2825 44.5467C67.4788 44.5675 65.69 44.2183 64.0265 43.5207C62.4352 42.8409 61.0043 41.8346 59.8265 40.5667C58.5949 39.2361 57.6428 37.6719 57.0265 35.9667C56.3419 34.0729 56.0032 32.0714 56.0265 30.0577V17.6767C56.0198 17.0385 56.0825 16.4014 56.2135 15.7767C56.2778 15.4965 56.4 15.2328 56.5722 15.0026C56.7444 14.7723 56.9629 14.5806 57.2135 14.4397C57.984 14.0558 58.8426 13.8833 59.7015 13.9397C60.5911 13.8732 61.4822 14.0458 62.2825 14.4397C62.5287 14.5892 62.7413 14.7878 62.9072 15.0232C63.0731 15.2586 63.1886 15.5257 63.2465 15.8077C63.3764 16.4424 63.4391 17.089 63.4335 17.7367V30.0537C63.3987 31.3812 63.6643 32.6994 64.2105 33.9097C64.6996 34.9566 65.49 35.8337 66.4805 36.4287C67.5977 37.0607 68.8677 37.3721 70.1505 37.3287C71.4823 37.3682 72.8011 37.0579 73.9755 36.4287C75.025 35.8357 75.8788 34.9495 76.4325 33.8787C77.0329 32.6947 77.332 31.381 77.3035 30.0537V17.6107C77.2966 16.9725 77.3593 16.3354 77.4905 15.7107C77.5525 15.4335 77.6741 15.1732 77.8467 14.9476C78.0194 14.7221 78.2391 14.5369 78.4905 14.4047C79.2888 14.0404 80.165 13.8799 81.0405 13.9377C81.9001 13.8712 82.7614 14.0443 83.5285 14.4377C84.0137 14.7529 84.3589 15.2428 84.4925 15.8057C84.6407 16.4166 84.7136 17.0432 84.7095 17.6717V41.0017C84.714 41.5894 84.641 42.1751 84.4925 42.7437C84.3399 43.2917 83.9817 43.7595 83.4925 44.0497C82.7131 44.4399 81.8429 44.6126 80.9735 44.5497C80.309 44.5753 79.6453 44.4804 79.0145 44.2697C78.5977 44.1275 78.2305 43.8686 77.9565 43.5237C77.7402 43.2396 77.5914 42.91 77.5215 42.5597C77.4595 42.23 77.4283 41.8952 77.4285 41.5597L77.9285 39.8797C77.5941 40.3569 77.2194 40.8046 76.8085 41.2177C76.2462 41.7916 75.6319 42.3121 74.9735 42.7727C74.1993 43.3162 73.3509 43.7456 72.4545 44.0477C71.4327 44.3909 70.3604 44.5589 69.2825 44.5467Z" fill="#007DB3"></path>
<path d="M94.5363 44.5467C93.6836 44.6095 92.8308 44.4263 92.0793 44.0187C91.5901 43.7073 91.2436 43.2153 91.1153 42.6497C90.9845 42.025 90.9222 41.3879 90.9293 40.7497V17.4897C90.9235 16.8846 90.9859 16.2808 91.1153 15.6897C91.181 15.418 91.3043 15.1636 91.4769 14.9437C91.6494 14.7237 91.8671 14.5433 92.1153 14.4147C92.8926 14.0539 93.748 13.8933 94.6033 13.9477C95.368 13.9054 96.1326 14.0328 96.8423 14.3207C97.2749 14.5045 97.6289 14.8348 97.8423 15.2537C98.0027 15.607 98.0976 15.9865 98.1223 16.3737C98.1334 16.6658 98.1645 16.9568 98.2153 17.2447L97.9663 19.2357C98.2473 18.5182 98.6669 17.863 99.2013 17.3077C99.8286 16.6478 100.54 16.073 101.316 15.5977C102.161 15.0697 103.068 14.6498 104.017 14.3477C104.993 14.0366 106.01 13.8794 107.034 13.8817C108.832 13.8509 110.615 14.2119 112.259 14.9397C113.778 15.6342 115.127 16.6535 116.209 17.9257C117.34 19.2702 118.196 20.8236 118.728 22.4977C119.333 24.4191 119.627 26.4247 119.599 28.4387V40.8157C119.607 41.4556 119.534 42.094 119.382 42.7157C119.242 43.2676 118.898 43.7457 118.418 44.0527C117.609 44.3861 116.741 44.555 115.865 44.5497C114.99 44.5444 114.124 44.3649 113.318 44.0217C113.068 43.8723 112.851 43.6742 112.679 43.4389C112.507 43.2037 112.384 42.9363 112.318 42.6527C112.187 42.0281 112.124 41.3909 112.131 40.7527V28.3747C112.166 27.047 111.9 25.7286 111.354 24.5177C110.874 23.483 110.094 22.6163 109.115 22.0297C107.983 21.4105 106.705 21.1095 105.415 21.1587C104.094 21.1269 102.787 21.4369 101.621 22.0587C100.564 22.638 99.6995 23.5136 99.1333 24.5777C98.5302 25.75 98.2307 27.0548 98.2623 28.3727V40.8127C98.2692 41.451 98.2065 42.0881 98.0753 42.7127C98.0139 42.9894 97.8967 43.2506 97.731 43.4805C97.5652 43.7104 97.3544 43.9041 97.1113 44.0497C96.3109 44.4436 95.4198 44.6162 94.5303 44.5497" fill="#007DB3"></path>
<path d="M129.68 44.6123C128.818 44.6719 127.956 44.489 127.192 44.0843C126.942 43.935 126.725 43.7368 126.553 43.5016C126.381 43.2664 126.259 42.999 126.192 42.7153C126.061 42.0907 125.998 41.4536 126.005 40.8153V17.6763C126 17.0579 126.072 16.4413 126.222 15.8413C126.368 15.2821 126.727 14.8022 127.222 14.5043C128.836 13.841 130.647 13.841 132.26 14.5043C132.506 14.654 132.719 14.8527 132.885 15.088C133.051 15.3234 133.167 15.5903 133.225 15.8723C133.355 16.507 133.418 17.1536 133.412 17.8013V40.8773C133.419 41.5156 133.357 42.1527 133.225 42.7773C133.164 43.0537 133.047 43.3146 132.881 43.5441C132.715 43.7737 132.504 43.967 132.261 44.1123C131.461 44.5063 130.57 44.6789 129.68 44.6123Z" fill="#007DB3"></path>
<path d="M6.57553 61.0517C6.62204 60.276 6.37179 59.5117 5.87553 58.9137C5.57965 58.6367 5.22854 58.4255 4.84525 58.2938C4.46196 58.1622 4.05515 58.113 3.65153 58.1497H1.13253C1.08017 58.1515 1.028 58.1425 0.979254 58.1233C0.930509 58.1041 0.886237 58.0751 0.84919 58.038C0.812143 58.001 0.783113 57.9567 0.763904 57.908C0.744696 57.8592 0.735719 57.8071 0.737534 57.7547V57.1707C0.735719 57.1183 0.744696 57.0662 0.763904 57.0174C0.783113 56.9687 0.812143 56.9244 0.84919 56.8873C0.886237 56.8503 0.930509 56.8213 0.979254 56.8021C1.028 56.7829 1.08017 56.7739 1.13253 56.7757H3.74553C4.59018 56.7465 5.43103 56.9017 6.20953 57.2307C6.83364 57.513 7.3447 57.9969 7.66053 58.6047C8.00774 59.3418 8.17271 60.1515 8.14153 60.9657V68.3127C8.14335 68.3651 8.13437 68.4172 8.11516 68.466C8.09595 68.5147 8.06693 68.559 8.02988 68.596C7.99283 68.6331 7.94856 68.6621 7.89981 68.6813C7.85107 68.7005 7.79889 68.7095 7.74653 68.7077H6.97053C6.91669 68.7109 6.86277 68.7026 6.81241 68.6833C6.76204 68.664 6.7164 68.6341 6.67853 68.5957C6.60973 68.5179 6.57387 68.4164 6.57853 68.3127L6.57553 61.0517ZM12.8945 58.1847L10.8515 58.1677C10.7478 58.1724 10.6463 58.1365 10.5685 58.0677C10.5311 58.0327 10.5016 57.99 10.4823 57.9425C10.463 57.895 10.4542 57.8439 10.4565 57.7927V54.7927C10.4547 54.7403 10.4637 54.6882 10.4829 54.6394C10.5021 54.5907 10.5311 54.5464 10.5682 54.5094C10.6052 54.4723 10.6495 54.4433 10.6983 54.4241C10.747 54.4049 10.7992 54.3959 10.8515 54.3977H11.5725C11.6249 54.3959 11.6771 54.4049 11.7258 54.4241C11.7746 54.4433 11.8188 54.4723 11.8559 54.5094C11.8929 54.5464 11.922 54.5907 11.9412 54.6394C11.9604 54.6882 11.9693 54.7403 11.9675 54.7927V56.7847H12.9295L12.8945 58.1847ZM12.8605 66.7357C12.8121 66.7529 12.7601 66.758 12.7092 66.7505C12.6583 66.743 12.61 66.7232 12.5685 66.6927C12.5244 66.6642 12.4885 66.6247 12.4645 66.578C12.4405 66.5313 12.4291 66.4791 12.4315 66.4267V65.6367C12.4301 65.5369 12.4633 65.4397 12.5255 65.3617C12.6001 65.2732 12.6982 65.2077 12.8085 65.1727L13.4785 64.9147C13.9163 64.7353 14.3291 64.5 14.7065 64.2147C15.0922 63.916 15.394 63.5226 15.5825 63.0727C15.816 62.4712 15.9242 61.8284 15.9005 61.1837C15.9229 60.58 15.8327 59.9774 15.6345 59.4067C15.5555 59.1981 15.4359 59.0073 15.2826 58.8453C15.1293 58.6832 14.9454 58.5532 14.7415 58.4627C14.1978 58.2515 13.6163 58.1552 13.0335 58.1797H12.5185C12.4662 58.1815 12.414 58.1725 12.3653 58.1533C12.3165 58.1341 12.2722 58.1051 12.2352 58.068C12.1981 58.031 12.1691 57.9867 12.1499 57.938C12.1307 57.8892 12.1217 57.8371 12.1235 57.7847V57.1667C12.1217 57.1143 12.1307 57.0622 12.1499 57.0134C12.1691 56.9647 12.1981 56.9204 12.2352 56.8833C12.2722 56.8463 12.3165 56.8173 12.3653 56.7981C12.414 56.7789 12.4662 56.7699 12.5185 56.7717H13.2735C14.1262 56.7354 14.9765 56.8876 15.7635 57.2177C16.3745 57.5075 16.851 58.0208 17.0945 58.6517C17.3903 59.4799 17.5261 60.3568 17.4945 61.2357C17.5098 61.9422 17.3994 62.6458 17.1685 63.3137C16.9712 63.8632 16.6712 64.3702 16.2845 64.8077C15.9207 65.2131 15.4947 65.5581 15.0225 65.8297C14.5584 66.0961 14.0699 66.3174 13.5635 66.4907L12.8605 66.7357ZM24.6905 65.2937C25.3427 65.3258 25.9916 65.1836 26.5705 64.8817C27.0753 64.6002 27.4827 64.172 27.7385 63.6537C28.0145 63.0842 28.1515 62.4574 28.1385 61.8247V57.1717C28.1367 57.1193 28.1457 57.0672 28.1649 57.0184C28.1841 56.9697 28.2131 56.9254 28.2502 56.8884C28.2872 56.8513 28.3315 56.8223 28.3803 56.8031C28.429 56.7839 28.4812 56.7749 28.5335 56.7767H29.2335C29.2874 56.7734 29.3413 56.7817 29.3917 56.801C29.4421 56.8203 29.4877 56.8502 29.5255 56.8887C29.5943 56.9665 29.6302 57.068 29.6255 57.1717V61.9447C29.6354 62.6213 29.519 63.2937 29.2825 63.9277C29.071 64.4929 28.7398 65.0058 28.3116 65.4311C27.8833 65.8564 27.3682 66.1841 26.8015 66.3917C26.189 66.6143 25.5385 66.7135 24.8875 66.6837H23.6085C22.9049 66.6943 22.2113 66.5165 21.5995 66.1687C21.006 65.8273 20.5187 65.3282 20.1915 64.7267C19.8381 64.0676 19.6607 63.3284 19.6765 62.5807V57.1717C19.6747 57.1193 19.6837 57.0672 19.7029 57.0184C19.7221 56.9697 19.7511 56.9254 19.7882 56.8884C19.8252 56.8513 19.8695 56.8223 19.9183 56.8031C19.967 56.7839 20.0192 56.7749 20.0715 56.7767H20.7925C20.8449 56.7749 20.8971 56.7839 20.9458 56.8031C20.9946 56.8223 21.0388 56.8513 21.0759 56.8884C21.1129 56.9254 21.142 56.9697 21.1612 57.0184C21.1804 57.0672 21.1893 57.1193 21.1875 57.1717L21.2395 62.2367C21.2122 62.6509 21.2713 63.0663 21.4132 63.4564C21.555 63.8465 21.7765 64.2028 22.0635 64.5027C22.343 64.7666 22.6721 64.9724 23.0317 65.108C23.3914 65.2437 23.7744 65.3064 24.1585 65.2927L24.6905 65.2937ZM20.8785 63.2847L20.8455 62.0307C21.5137 62.0577 22.1786 61.9254 22.7855 61.6447C23.2007 61.4317 23.5308 61.0835 23.7215 60.6577C23.9021 60.2287 23.9926 59.7671 23.9875 59.3017V57.1727C23.9829 57.069 24.0187 56.9675 24.0875 56.8897C24.1253 56.8512 24.171 56.8212 24.2213 56.8019C24.2717 56.7826 24.3257 56.7743 24.3795 56.7777H25.0795C25.1319 56.7759 25.1841 56.7849 25.2328 56.8041C25.2816 56.8233 25.3258 56.8523 25.3629 56.8894C25.3999 56.9264 25.429 56.9707 25.4482 57.0194C25.4674 57.0682 25.4763 57.1203 25.4745 57.1727V59.3727C25.4845 60.0743 25.3122 60.7666 24.9745 61.3817C24.623 61.9948 24.0927 62.486 23.4545 62.7897C22.6472 63.1565 21.7642 63.3258 20.8785 63.2837V63.2847ZM36.6575 62.5977C36.6052 62.5995 36.553 62.5905 36.5043 62.5713C36.4555 62.5521 36.4112 62.5231 36.3742 62.486C36.3371 62.449 36.3081 62.4047 36.2889 62.356C36.2697 62.3072 36.2607 62.2551 36.2625 62.2027V57.1717C36.2607 57.1193 36.2697 57.0672 36.2889 57.0184C36.3081 56.9697 36.3371 56.9254 36.3742 56.8884C36.4112 56.8513 36.4555 56.8223 36.5043 56.8031C36.553 56.7839 36.6052 56.7749 36.6575 56.7767H37.4645C37.5184 56.7734 37.5723 56.7817 37.6227 56.801C37.6731 56.8203 37.7187 56.8502 37.7565 56.8887C37.8253 56.9665 37.8612 57.068 37.8565 57.1717V62.2027C37.8612 62.3064 37.8253 62.4079 37.7565 62.4857C37.7187 62.5242 37.6731 62.5541 37.6227 62.5734C37.5723 62.5927 37.5184 62.601 37.4645 62.5977H36.6575ZM42.6155 58.1847L40.5725 58.1677C40.4688 58.1724 40.3673 58.1365 40.2895 58.0677C40.2522 58.0326 40.2228 57.9899 40.2035 57.9424C40.1842 57.895 40.1753 57.8439 40.1775 57.7927V54.7927C40.1757 54.7403 40.1847 54.6882 40.2039 54.6394C40.2231 54.5907 40.2521 54.5464 40.2892 54.5094C40.3262 54.4723 40.3705 54.4433 40.4193 54.4241C40.468 54.4049 40.5202 54.3959 40.5725 54.3977H41.2935C41.3459 54.3959 41.3981 54.4049 41.4468 54.4241C41.4956 54.4433 41.5398 54.4723 41.5769 54.5094C41.6139 54.5464 41.643 54.5907 41.6622 54.6394C41.6814 54.6882 41.6903 54.7403 41.6885 54.7927V56.7847H42.6455L42.6155 58.1847ZM42.5815 66.7357C42.5331 66.7529 42.4811 66.758 42.4302 66.7505C42.3793 66.743 42.331 66.7232 42.2895 66.6927C42.2454 66.6642 42.2095 66.6247 42.1855 66.578C42.1615 66.5313 42.1501 66.4791 42.1525 66.4267V65.6367C42.1513 65.5369 42.1845 65.4398 42.2465 65.3617C42.3213 65.2734 42.4193 65.2079 42.5295 65.1727L43.1995 64.9147C43.6374 64.7353 44.0501 64.5001 44.4275 64.2147C44.8135 63.9163 45.1153 63.5228 45.3035 63.0727C45.537 62.4712 45.6452 61.8284 45.6215 61.1837C45.6439 60.58 45.5537 59.9774 45.3555 59.4067C45.2765 59.1981 45.1569 59.0072 45.0036 58.8452C44.8503 58.6832 44.6664 58.5531 44.4625 58.4627C43.9188 58.2515 43.3373 58.1551 42.7545 58.1797H42.2395C42.1872 58.1815 42.135 58.1725 42.0863 58.1533C42.0375 58.1341 41.9932 58.1051 41.9562 58.068C41.9191 58.031 41.8901 57.9867 41.8709 57.938C41.8517 57.8892 41.8427 57.8371 41.8445 57.7847V57.1667C41.8427 57.1143 41.8517 57.0622 41.8709 57.0134C41.8901 56.9647 41.9191 56.9204 41.9562 56.8833C41.9932 56.8463 42.0375 56.8173 42.0863 56.7981C42.135 56.7789 42.1872 56.7699 42.2395 56.7717H42.9955C43.8482 56.7354 44.6985 56.8876 45.4855 57.2177C46.0965 57.5075 46.573 58.0208 46.8165 58.6517C47.1125 59.4799 47.2483 60.3568 47.2165 61.2357C47.232 61.9422 47.1216 62.6458 46.8905 63.3137C46.6934 63.8633 46.3933 64.3703 46.0065 64.8077C45.6428 65.2132 45.2168 65.5582 44.7445 65.8297C44.2805 66.0963 43.7919 66.3176 43.2855 66.4907L42.5815 66.7357ZM53.7815 66.7527C53.1825 66.8099 52.578 66.741 52.0072 66.5503C51.4364 66.3597 50.9119 66.0515 50.4675 65.6457C49.7473 64.7791 49.385 63.6703 49.4545 62.5457V57.1717C49.4527 57.1193 49.4617 57.0672 49.4809 57.0184C49.5001 56.9697 49.5291 56.9254 49.5662 56.8884C49.6032 56.8513 49.6475 56.8223 49.6963 56.8031C49.745 56.7839 49.7972 56.7749 49.8495 56.7767H50.5495C50.6034 56.7734 50.6573 56.7817 50.7077 56.801C50.7581 56.8203 50.8037 56.8502 50.8415 56.8887C50.9103 56.9665 50.9462 57.068 50.9415 57.1717V62.4597C50.8887 63.2362 51.1397 64.0028 51.6415 64.5977C52.2392 65.0709 52.9766 65.3334 53.7388 65.3442C54.5011 65.3551 55.2456 65.1137 55.8565 64.6577C56.3412 64.0838 56.5912 63.3481 56.5565 62.5977C56.5692 62.4233 56.5722 62.2484 56.5655 62.0737C56.5595 61.839 56.5565 61.6014 56.5565 61.3607V60.8287C56.5991 60.0864 56.3835 59.3522 55.9465 58.7507C55.7605 58.5376 55.5294 58.3686 55.2699 58.2558C55.0105 58.143 54.7293 58.0894 54.4465 58.0987C54.2198 58.1024 53.9945 58.1361 53.7765 58.1987C53.5515 58.2558 53.3371 58.3487 53.1415 58.4737C53.0921 58.5019 53.0365 58.5174 52.9797 58.519C52.9228 58.5206 52.8664 58.5081 52.8155 58.4827C52.7625 58.4621 52.7173 58.4253 52.6864 58.3776C52.6555 58.3298 52.6405 58.2735 52.6435 58.2167V57.6847C52.6418 57.5836 52.6533 57.4828 52.6775 57.3847C52.7097 57.2867 52.7771 57.2041 52.8665 57.1527C53.0991 57.0135 53.3467 56.9011 53.6045 56.8177C53.9449 56.7216 54.298 56.6781 54.6515 56.6887C55.3013 56.6666 55.9458 56.8115 56.5235 57.1097C57.0395 57.4047 57.4437 57.8616 57.6735 58.4097C57.9627 59.124 58.1085 59.8881 58.1025 60.6587C58.1139 60.7734 58.1195 60.968 58.1195 61.2427V62.0837C58.1195 62.3697 58.1139 62.5697 58.1025 62.6837C58.1024 63.4499 57.9416 64.2075 57.6305 64.9077C57.3457 65.5131 56.8602 66.0013 56.2565 66.2897C55.4756 66.6298 54.6276 66.7881 53.7765 66.7527H53.7815ZM60.7185 62.5977C60.6662 62.5995 60.614 62.5905 60.5653 62.5713C60.5165 62.5521 60.4722 62.5231 60.4352 62.486C60.3981 62.449 60.3691 62.4047 60.3499 62.356C60.3307 62.3072 60.3217 62.2551 60.3235 62.2027V57.1717C60.3217 57.1193 60.3307 57.0672 60.3499 57.0184C60.3691 56.9697 60.3981 56.9254 60.4352 56.8884C60.4722 56.8513 60.5165 56.8223 60.5653 56.8031C60.614 56.7839 60.6662 56.7749 60.7185 56.7767H61.5255C61.5794 56.7734 61.6333 56.7817 61.6837 56.801C61.7341 56.8203 61.7797 56.8502 61.8175 56.8887C61.8863 56.9665 61.9222 57.068 61.9175 57.1717V62.2027C61.9222 62.3064 61.8863 62.4079 61.8175 62.4857C61.7797 62.5242 61.7341 62.5541 61.6837 62.5734C61.6333 62.5927 61.5794 62.601 61.5255 62.5977H60.7185ZM66.8185 65.7057C66.4437 65.965 66.0441 66.1864 65.6255 66.3667C65.2517 66.5217 64.8635 66.6396 64.4665 66.7187C64.3679 66.7322 64.2674 66.7205 64.1745 66.6847C64.1337 66.6648 64.1002 66.6325 64.0786 66.5925C64.0571 66.5525 64.0487 66.5068 64.0545 66.4617V65.6027C64.0545 65.408 64.1749 65.265 64.4155 65.1737C64.4955 65.139 64.6442 65.0874 64.8615 65.0187C65.0992 64.9419 65.3328 64.8531 65.5615 64.7527C65.7869 64.6573 66.0048 64.5454 66.2135 64.4177C66.5221 64.2155 66.8045 63.976 67.0545 63.7047C67.3199 63.4274 67.5546 63.1223 67.7545 62.7947C67.9214 62.5472 68.0191 62.2596 68.0375 61.9617L69.0375 61.8417C69.0216 62.3555 68.9111 62.862 68.7115 63.3357C68.5109 63.8305 68.239 64.2934 67.9045 64.7097C67.595 65.098 67.2249 65.434 66.8085 65.7047L66.8185 65.7057ZM69.0335 66.5817C68.9836 66.5845 68.9337 66.5758 68.8876 66.5564C68.8415 66.537 68.8004 66.5074 68.7675 66.4697C68.7012 66.3878 68.6568 66.2904 68.6385 66.1867L67.5805 60.9127C67.4914 60.3954 67.3576 59.8868 67.1805 59.3927C67.0589 59.0351 66.8459 58.7155 66.5625 58.4657C66.2588 58.239 65.885 58.1264 65.5065 58.1477H64.8855C64.8332 58.1495 64.781 58.1405 64.7323 58.1213C64.6835 58.1021 64.6392 58.0731 64.6022 58.036C64.5651 57.999 64.5361 57.9547 64.5169 57.906C64.4977 57.8572 64.4887 57.8051 64.4905 57.7527V57.1347C64.4887 57.0823 64.4977 57.0302 64.5169 56.9814C64.5361 56.9327 64.5651 56.8884 64.6022 56.8513C64.6392 56.8143 64.6835 56.7853 64.7323 56.7661C64.781 56.7469 64.8332 56.7379 64.8855 56.7397H65.5205C66.1695 56.7096 66.8133 56.8676 67.3745 57.1947C67.8728 57.5322 68.2634 58.0061 68.4995 58.5597C68.819 59.2857 69.0538 60.046 69.1995 60.8257L70.2295 66.1827C70.2424 66.2332 70.2411 66.2863 70.226 66.3362C70.2108 66.3861 70.1823 66.4308 70.1435 66.4657C70.0646 66.5399 69.9598 66.5801 69.8515 66.5777L69.0335 66.5817ZM72.2445 62.5977C72.1922 62.5995 72.14 62.5905 72.0913 62.5713C72.0425 62.5521 71.9982 62.5231 71.9612 62.486C71.9241 62.449 71.8951 62.4047 71.8759 62.356C71.8567 62.3072 71.8477 62.2551 71.8495 62.2027V57.1717C71.8477 57.1193 71.8567 57.0672 71.8759 57.0184C71.8951 56.9697 71.9241 56.9254 71.9612 56.8884C71.9982 56.8513 72.0425 56.8223 72.0913 56.8031C72.14 56.7839 72.1922 56.7749 72.2445 56.7767H73.0455C73.0994 56.7734 73.1533 56.7817 73.2037 56.801C73.2541 56.8203 73.2997 56.8502 73.3375 56.8887C73.4063 56.9665 73.4422 57.068 73.4375 57.1717V62.2027C73.4422 62.3064 73.4063 62.4079 73.3375 62.4857C73.2997 62.5242 73.2541 62.5541 73.2037 62.5734C73.1533 62.5927 73.0994 62.601 73.0455 62.5977H72.2445ZM75.7645 58.1507C75.7122 58.1525 75.66 58.1435 75.6113 58.1243C75.5625 58.1051 75.5182 58.0761 75.4812 58.039C75.4441 58.002 75.4151 57.9577 75.3959 57.909C75.3767 57.8602 75.3677 57.8081 75.3695 57.7557V57.1717C75.3677 57.1193 75.3767 57.0672 75.3959 57.0184C75.4151 56.9697 75.4441 56.9254 75.4812 56.8884C75.5182 56.8513 75.5625 56.8223 75.6113 56.8031C75.66 56.7839 75.7122 56.7749 75.7645 56.7767H83.1305C83.1829 56.7749 83.2351 56.7839 83.2838 56.8031C83.3326 56.8223 83.3768 56.8513 83.4139 56.8884C83.4509 56.9254 83.48 56.9697 83.4992 57.0184C83.5184 57.0672 83.5274 57.1193 83.5255 57.1717V57.7557C83.5274 57.8081 83.5184 57.8602 83.4992 57.909C83.48 57.9577 83.4509 58.002 83.4139 58.039C83.3768 58.0761 83.3326 58.1051 83.2838 58.1243C83.2351 58.1435 83.1829 58.1525 83.1305 58.1507H75.7645ZM80.4005 66.5817C80.3492 66.5891 80.2968 66.5844 80.2476 66.568C80.1984 66.5516 80.1537 66.5239 80.117 66.4872C80.0803 66.4506 80.0527 66.4058 80.0363 66.3566C80.0199 66.3074 80.0152 66.255 80.0225 66.2037V60.0737C79.9996 59.5365 80.0811 58.9999 80.2625 58.4937C80.4225 58.1157 80.6225 57.9267 80.8625 57.9267H82.5455C82.2589 57.9267 82.0255 58.144 81.8455 58.5787C81.6541 59.0946 81.5638 59.6426 81.5795 60.1927V66.2027C81.5816 66.2546 81.5719 66.3063 81.5511 66.354C81.5303 66.4016 81.499 66.4439 81.4595 66.4777C81.3777 66.5457 81.2738 66.5813 81.1675 66.5777L80.4005 66.5817ZM92.6085 66.5817C92.5562 66.5835 92.504 66.5745 92.4553 66.5553C92.4065 66.5361 92.3622 66.5071 92.3252 66.47C92.2881 66.433 92.2591 66.3887 92.2399 66.34C92.2207 66.2912 92.2117 66.2391 92.2135 66.1867V61.0527C92.2612 60.279 92.0159 59.5158 91.5265 58.9147C91.2327 58.6374 90.8833 58.4258 90.5013 58.2941C90.1194 58.1623 89.7138 58.1135 89.3115 58.1507H86.0735C86.0212 58.1525 85.969 58.1435 85.9203 58.1243C85.8715 58.1051 85.8272 58.0761 85.7902 58.039C85.7531 58.002 85.7241 57.9577 85.7049 57.909C85.6857 57.8602 85.6767 57.8081 85.6785 57.7557V57.1717C85.6767 57.1193 85.6857 57.0672 85.7049 57.0184C85.7241 56.9697 85.7531 56.9254 85.7902 56.8884C85.8272 56.8513 85.8715 56.8223 85.9203 56.8031C85.969 56.7839 86.0212 56.7749 86.0735 56.7767H89.3875C89.9827 56.7277 90.5817 56.7981 91.1493 56.9839C91.7169 57.1697 92.2416 57.4672 92.6925 57.8587C93.0718 58.2844 93.3621 58.7818 93.5464 59.3213C93.7306 59.8609 93.8051 60.4319 93.7655 61.0007V66.1857C93.7673 66.2381 93.7584 66.2902 93.7392 66.339C93.72 66.3877 93.6909 66.432 93.6539 66.469C93.6168 66.5061 93.5726 66.5351 93.5238 66.5543C93.4751 66.5735 93.4229 66.5825 93.3705 66.5807L92.6085 66.5817ZM86.0835 66.5817C86.0312 66.5835 85.979 66.5745 85.9303 66.5553C85.8815 66.5361 85.8372 66.5071 85.8002 66.47C85.7631 66.433 85.7341 66.3887 85.7149 66.34C85.6957 66.2912 85.6867 66.2391 85.6885 66.1867V60.4517C85.6867 60.3993 85.6957 60.3472 85.7149 60.2984C85.7341 60.2497 85.7631 60.2054 85.8002 60.1684C85.8372 60.1313 85.8815 60.1023 85.9303 60.0831C85.979 60.0639 86.0312 60.0549 86.0835 60.0567H86.8455C86.8994 60.0534 86.9533 60.0617 87.0037 60.081C87.0541 60.1003 87.0997 60.1302 87.1375 60.1687C87.2063 60.2465 87.2422 60.348 87.2375 60.4517V66.1867C87.2422 66.2904 87.2063 66.3919 87.1375 66.4697C87.0997 66.5082 87.0541 66.5381 87.0037 66.5574C86.9533 66.5767 86.8994 66.585 86.8455 66.5817H86.0835ZM102.894 57.3097H103.323C103.392 57.3044 103.462 57.3131 103.529 57.3353C103.595 57.3574 103.656 57.3926 103.709 57.4387C103.75 57.4795 103.782 57.5294 103.802 57.5846C103.821 57.6398 103.828 57.6986 103.821 57.7567C103.729 58.2374 103.651 58.6707 103.589 59.0567C103.526 59.4406 103.483 59.8274 103.46 60.2157C103.436 60.599 103.425 61.0324 103.426 61.5157L103.46 66.1857C103.464 66.2894 103.428 66.3909 103.36 66.4687C103.324 66.5061 103.282 66.5354 103.234 66.5547C103.187 66.5741 103.136 66.5829 103.085 66.5807L100.647 66.5467C100.543 66.5514 100.441 66.5155 100.364 66.4467C100.325 66.4089 100.295 66.3632 100.276 66.3129C100.257 66.2625 100.248 66.2085 100.252 66.1547V65.6057C100.25 65.5533 100.259 65.5012 100.278 65.4524C100.297 65.4037 100.326 65.3594 100.363 65.3224C100.4 65.2853 100.445 65.2563 100.493 65.2371C100.542 65.2179 100.594 65.2089 100.647 65.2107L101.969 65.2277V61.5877C101.969 61.121 101.974 60.6877 101.986 60.2877C101.996 59.8885 102.03 59.4901 102.086 59.0947C102.154 58.6383 102.246 58.1857 102.361 57.7387C102.389 57.6239 102.445 57.5178 102.524 57.4297C102.573 57.3871 102.63 57.3547 102.692 57.3346C102.753 57.3145 102.819 57.3071 102.884 57.3127L102.894 57.3097ZM101.349 58.1507C101.296 58.1525 101.244 58.1435 101.195 58.1243C101.147 58.1051 101.102 58.0761 101.065 58.039C101.028 58.002 100.999 57.9577 100.98 57.909C100.961 57.8602 100.952 57.8081 100.954 57.7557V57.1717C100.952 57.1193 100.961 57.0672 100.98 57.0184C100.999 56.9697 101.028 56.9254 101.065 56.8884C101.102 56.8513 101.147 56.8223 101.195 56.8031C101.244 56.7839 101.296 56.7749 101.349 56.7767H105.075C105.915 56.7476 106.752 56.909 107.522 57.2487C108.148 57.544 108.659 58.0393 108.973 58.6567C109.314 59.3772 109.479 60.1687 109.454 60.9657V66.1857C109.455 66.2381 109.446 66.2902 109.427 66.339C109.408 66.3877 109.379 66.432 109.342 66.469C109.305 66.5061 109.261 66.5351 109.212 66.5543C109.163 66.5735 109.111 66.5825 109.059 66.5807H108.286C108.232 66.584 108.178 66.5757 108.127 66.5564C108.077 66.5371 108.031 66.5072 107.994 66.4687C107.925 66.3909 107.889 66.2894 107.894 66.1857V61.0517C107.94 60.276 107.69 59.5117 107.194 58.9137C106.898 58.6367 106.547 58.4255 106.163 58.2938C105.78 58.1622 105.373 58.113 104.97 58.1497L101.349 58.1507ZM112.338 62.5977C112.285 62.5995 112.233 62.5905 112.184 62.5713C112.136 62.5521 112.091 62.5231 112.054 62.486C112.017 62.449 111.988 62.4047 111.969 62.356C111.95 62.3072 111.941 62.2551 111.943 62.2027V57.1717C111.941 57.1193 111.95 57.0672 111.969 57.0184C111.988 56.9697 112.017 56.9254 112.054 56.8884C112.091 56.8513 112.136 56.8223 112.184 56.8031C112.233 56.7839 112.285 56.7749 112.338 56.7767H113.145C113.198 56.7734 113.252 56.7817 113.303 56.801C113.353 56.8203 113.399 56.8502 113.437 56.8887C113.505 56.9665 113.541 57.068 113.537 57.1717V62.2027C113.541 62.3064 113.505 62.4079 113.437 62.4857C113.399 62.5242 113.353 62.5541 113.303 62.5734C113.252 62.5927 113.198 62.601 113.145 62.5977H112.338ZM116.133 66.5817C116.08 66.5835 116.028 66.5745 115.979 66.5553C115.931 66.5361 115.886 66.5071 115.849 66.47C115.812 66.433 115.783 66.3887 115.764 66.34C115.745 66.2912 115.736 66.2391 115.738 66.1867V65.6027C115.736 65.5503 115.745 65.4982 115.764 65.4494C115.783 65.4007 115.812 65.3564 115.849 65.3194C115.886 65.2823 115.931 65.2533 115.979 65.2341C116.028 65.2149 116.08 65.2059 116.133 65.2077H121.046V61.0527C121.093 60.279 120.848 59.5158 120.359 58.9147C120.065 58.6374 119.715 58.4259 119.333 58.2942C118.951 58.1624 118.546 58.1135 118.144 58.1507H116.29C116.237 58.1525 116.185 58.1435 116.136 58.1243C116.088 58.1051 116.043 58.0761 116.006 58.039C115.969 58.002 115.94 57.9577 115.921 57.909C115.902 57.8602 115.893 57.8081 115.895 57.7557V57.1717C115.893 57.1193 115.902 57.0672 115.921 57.0184C115.94 56.9697 115.969 56.9254 116.006 56.8884C116.043 56.8513 116.088 56.8223 116.136 56.8031C116.185 56.7839 116.237 56.7749 116.29 56.7767H118.23C119.074 56.7483 119.913 56.9128 120.685 57.2577C121.315 57.5572 121.831 58.0548 122.153 58.6747C122.501 59.3995 122.669 60.1979 122.642 61.0017V65.2087H123.277C123.329 65.2069 123.381 65.2159 123.43 65.2351C123.479 65.2543 123.523 65.2833 123.56 65.3204C123.597 65.3574 123.626 65.4017 123.645 65.4504C123.664 65.4992 123.673 65.5513 123.672 65.6037V66.1877C123.673 66.2401 123.664 66.2922 123.645 66.341C123.626 66.3897 123.597 66.434 123.56 66.471C123.523 66.5081 123.479 66.5371 123.43 66.5563C123.381 66.5755 123.329 66.5845 123.277 66.5827L116.133 66.5817ZM132.496 66.5817C132.443 66.5835 132.391 66.5745 132.342 66.5553C132.294 66.5361 132.249 66.5071 132.212 66.47C132.175 66.433 132.146 66.3887 132.127 66.34C132.108 66.2912 132.099 66.2391 132.101 66.1867V61.0527C132.148 60.279 131.903 59.5158 131.414 58.9147C131.12 58.6374 130.77 58.4258 130.388 58.2941C130.006 58.1623 129.601 58.1135 129.199 58.1507H125.971C125.918 58.1525 125.866 58.1435 125.817 58.1243C125.769 58.1051 125.724 58.0761 125.687 58.039C125.65 58.002 125.621 57.9577 125.602 57.909C125.583 57.8602 125.574 57.8081 125.576 57.7557V57.1717C125.574 57.1193 125.583 57.0672 125.602 57.0184C125.621 56.9697 125.65 56.9254 125.687 56.8884C125.724 56.8513 125.769 56.8223 125.817 56.8031C125.866 56.7839 125.918 56.7749 125.971 56.7767H129.285C129.88 56.7277 130.479 56.7981 131.046 56.9839C131.614 57.1697 132.139 57.4672 132.59 57.8587C132.969 58.2844 133.259 58.7818 133.443 59.3213C133.628 59.8609 133.702 60.4319 133.663 61.0007V66.1857C133.664 66.2381 133.655 66.2902 133.636 66.339C133.617 66.3877 133.588 66.432 133.551 66.469C133.514 66.5061 133.47 66.5351 133.421 66.5543C133.372 66.5735 133.32 66.5825 133.268 66.5807L132.496 66.5817ZM125.971 66.5817C125.918 66.5835 125.866 66.5745 125.817 66.5553C125.769 66.5361 125.724 66.5071 125.687 66.47C125.65 66.433 125.621 66.3887 125.602 66.34C125.583 66.2912 125.574 66.2391 125.576 66.1867V60.4517C125.574 60.3993 125.583 60.3472 125.602 60.2984C125.621 60.2497 125.65 60.2054 125.687 60.1684C125.724 60.1313 125.769 60.1023 125.817 60.0831C125.866 60.0639 125.918 60.0549 125.971 60.0567H126.744C126.797 60.0534 126.851 60.0617 126.902 60.081C126.952 60.1003 126.998 60.1302 127.036 60.1687C127.104 60.2465 127.14 60.348 127.136 60.4517V66.1867C127.14 66.2904 127.104 66.3919 127.036 66.4697C126.998 66.5082 126.952 66.5381 126.902 66.5574C126.851 66.5767 126.797 66.585 126.744 66.5817H125.971Z" fill="black"></path>
<path d="M54.8688 39.4715L41.2418 15.8715C40.9249 15.3225 40.4723 14.8642 39.9274 14.5404C39.3824 14.2166 38.7635 14.0383 38.1298 14.0225C38.0868 14.0225 38.0438 14.0225 38.0018 14.0225C37.9598 14.0225 37.9158 14.0225 37.8738 14.0225C37.24 14.0381 36.6208 14.2164 36.0757 14.5402C35.5306 14.8639 35.0778 15.3224 34.7608 15.8715L21.1338 39.4715C20.9333 39.8188 20.8031 40.2022 20.7507 40.5999C20.6984 40.9975 20.7249 41.4016 20.8287 41.789C20.9325 42.1764 21.1116 42.5396 21.3558 42.8578C21.6 43.176 21.9044 43.4429 22.2518 43.6435L23.4128 44.3135C23.7602 44.514 24.1437 44.6441 24.5414 44.6964C24.9391 44.7486 25.3432 44.722 25.7306 44.6181C26.118 44.5142 26.4812 44.335 26.7993 44.0907C27.1175 43.8465 27.3844 43.5419 27.5848 43.1945L38.0008 25.1555L48.4158 43.1945C48.6163 43.5418 48.8833 43.8463 49.2015 44.0905C49.5197 44.3346 49.8828 44.5137 50.2702 44.6176C50.6577 44.7214 51.0617 44.7479 51.4594 44.6955C51.857 44.6432 52.2405 44.513 52.5878 44.3125L53.7488 43.6425C54.0962 43.4419 54.4006 43.175 54.6448 42.8568C54.889 42.5386 55.0681 42.1754 55.1719 41.788C55.2757 41.4006 55.3022 40.9965 55.2499 40.5989C55.1975 40.2012 55.0673 39.8178 54.8668 39.4705" fill="#007DB3"></path>
<path d="M27.1735 25.2105L25.7135 22.9175C25.6775 22.8415 25.6405 22.7645 25.5975 22.6905L21.3365 15.8695C21.0196 15.3206 20.5669 14.8622 20.022 14.5385C19.4771 14.2147 18.8581 14.0363 18.2245 14.0205H18.0965H17.9685C17.3346 14.0362 16.7154 14.2144 16.1703 14.5382C15.6252 14.862 15.1724 15.3204 14.8555 15.8695L1.23145 39.4705C1.03091 39.8179 0.900742 40.2013 0.848392 40.5989C0.796042 40.9966 0.822532 41.4007 0.926349 41.7881C1.03017 42.1755 1.20928 42.5386 1.45345 42.8568C1.69763 43.175 2.00209 43.442 2.34945 43.6425L3.51045 44.3135C3.85785 44.514 4.24135 44.6441 4.63904 44.6964C5.03673 44.7487 5.44082 44.7221 5.82824 44.6182C6.21566 44.5143 6.57881 44.3351 6.89696 44.0908C7.21511 43.8465 7.48202 43.542 7.68245 43.1945L18.2045 24.9715L22.2365 31.3175C22.3581 31.5092 22.5272 31.6663 22.7274 31.7736C22.9275 31.8809 23.152 31.9347 23.379 31.9299C23.606 31.925 23.828 31.8617 24.0234 31.746C24.2188 31.6304 24.381 31.4662 24.4945 31.2695L27.2035 26.5775C27.3242 26.3686 27.3853 26.1307 27.3802 25.8895C27.3751 25.6483 27.3039 25.4131 27.1745 25.2095" fill="#007DB3"></path>
<path d="M129.534 8.02368C128.622 8.08787 127.709 7.9055 126.891 7.49568C126.625 7.33654 126.394 7.12485 126.212 6.8735C126.03 6.62215 125.901 6.33641 125.833 6.03368C125.682 5.36 125.608 4.67114 125.614 3.98068C125.603 3.29008 125.676 2.60069 125.831 1.92768C125.909 1.63287 126.045 1.35679 126.232 1.11615C126.419 0.875513 126.653 0.675318 126.919 0.527678C127.751 0.121233 128.674 -0.0604587 129.597 0.0006785C130.524 -0.0732208 131.453 0.121181 132.272 0.560678C132.789 0.904424 133.165 1.42324 133.329 2.02168C133.505 2.70219 133.588 3.40303 133.578 4.10568C133.582 4.77734 133.499 5.44665 133.329 6.09668C133.256 6.39293 133.125 6.67179 132.943 6.91733C132.762 7.16286 132.534 7.37026 132.272 7.52768C131.418 7.92574 130.475 8.09789 129.535 8.02768" fill="#007DB3"></path>
</g>
</g>
<defs>
<clipPath id="clip0_4474_946">
<rect width="134.873" height="71.113" fill="white"></rect>
</clipPath>
</defs>
</svg>